<svg width="92" height="174" viewBox="0 0 92 174" fill="none" xmlns="http://www.w3.org/2000/svg">
<path d="M5.06402 173.651C3.80064 172.602 2.22142 171.729 1.27389 170.506C-0.937014 167.361 -0.147404 163.518 2.69519 160.548C19.9087 143.078 37.1222 125.783 54.3356 108.488C60.8104 102.024 67.2852 95.3855 73.76 88.9217C74.3917 88.2229 75.0234 87.5241 75.813 86.6506C71.707 82.4578 67.759 78.4398 63.811 74.5964C47.8608 58.5241 31.9107 42.4518 15.9606 26.3795C11.6967 22.1867 7.59077 17.6446 3.16895 13.6265C-1.09494 9.78313 -1.25286 2.62048 5.06402 0C6.16947 0 7.117 0 8.22245 0C10.7492 2.27108 13.276 4.19277 15.6448 6.46386C40.1227 31.0964 64.4426 55.7289 88.9205 80.3614C93.0265 84.3795 93.0265 89.2711 88.9205 93.4639C63.1793 119.494 37.2801 145.524 11.5388 171.554C10.5913 172.602 9.32791 173.127 8.22245 174C7.27492 173.651 6.16947 173.651 5.06402 173.651Z" fill="#E5E5E5" fill-opacity="0.72"/>
</svg>
