<svg width="28" height="28" viewBox="0 0 28 28" fill="none" xmlns="http://www.w3.org/2000/svg">
<path fill-rule="evenodd" clip-rule="evenodd" d="M23.7089 27.2443C24.6852 28.2206 26.2681 28.2206 27.2444 27.2443C28.2207 26.268 28.2207 24.6851 27.2444 23.7088L17.6984 14.1627L27.2443 4.61678C28.2206 3.64047 28.2206 2.05755 27.2443 1.08124C26.268 0.104931 24.6851 0.104933 23.7088 1.08124L14.1628 10.6272L4.61702 1.08135C3.64071 0.105044 2.0578 0.105043 1.08149 1.08135C0.105176 2.05767 0.105177 3.64058 1.08149 4.61689L10.6273 14.1627L1.08135 23.7087C0.10504 24.685 0.10504 26.2679 1.08135 27.2442C2.05766 28.2205 3.64057 28.2205 4.61689 27.2442L14.1628 17.6982L23.7089 27.2443Z" fill="white"/>
</svg>
