<svg width="95" height="149" viewBox="0 0 95 149" fill="none" xmlns="http://www.w3.org/2000/svg">
<path d="M44.7499 96.7133C54.8644 90.2492 57.8353 76.7611 51.3712 66.6467L24.709 24.9283C18.2441 14.8125 4.75465 11.8424 -5.35976 18.3065C-15.4742 24.7706 -18.4443 38.2601 -11.9794 48.3758L14.682 90.0929C21.1469 100.209 34.6355 103.177 44.7499 96.7133ZM-8.0874 45.8902C-13.1813 37.9199 -10.8412 27.292 -2.8721 22.199C5.09699 17.1059 15.7248 19.446 20.8187 27.4164L47.4801 69.1335C52.5731 77.1026 50.2322 87.7291 42.2631 92.8222C34.294 97.9152 23.667 95.5764 18.5739 87.6073L-8.0874 45.8902Z" fill="#DD1818"/>
<path d="M61.9563 60.5101L55.9705 51.1441C55.2833 50.0688 53.8555 49.7555 52.7815 50.4419C51.7075 51.1283 51.3921 52.5557 52.0793 53.6309L58.0651 62.9969C66.7881 76.6458 62.7794 94.8473 49.1318 103.569C35.4855 112.291 17.2861 108.282 8.56313 94.6336L2.57732 85.2676C1.89013 84.1923 0.462287 83.8791 -0.611672 84.5654C-1.68563 85.2518 -2.00103 86.6792 -1.31383 87.7544L4.67198 97.1204C14.3482 112.261 34.0966 117.141 49.6258 108.63L61.8303 127.727L38.4133 142.692C37.3394 143.379 37.024 144.806 37.7112 145.881C38.3975 146.955 39.8262 147.27 40.9002 146.584L91.6227 114.167C92.6967 113.48 93.0112 112.052 92.3249 110.978C91.6377 109.903 90.2098 109.589 89.1359 110.276L65.7202 125.241L53.5156 106.144C67.7642 95.6239 71.6326 75.6506 61.9563 60.5101Z" fill="#DD1818"/>
</svg>
