<svg width="200" height="188" viewBox="0 0 200 188" fill="none" xmlns="http://www.w3.org/2000/svg">
<path d="M88.0138 76.5423C99.1326 81.0241 111.434 78.0032 119.318 69.8947C119.376 81.2043 126.148 91.9134 137.272 96.3974C151.934 102.307 168.671 95.1806 174.584 80.5114C180.496 65.844 173.378 49.102 158.718 43.1929C147.594 38.7089 135.288 41.7283 127.404 49.8342C127.348 38.5279 120.58 27.8203 109.459 23.3378C94.7956 17.4272 78.0551 24.5523 72.143 39.2197C66.2301 53.889 73.3501 70.6317 88.0138 76.5423ZM156.482 48.7393C168.085 53.4163 173.718 66.6678 169.039 78.2783C164.359 89.8888 151.11 95.5315 139.507 90.8546C127.889 86.1717 122.246 72.9164 126.927 61.3041C131.605 49.6929 144.864 44.0564 156.482 48.7393ZM107.224 28.8843C118.834 33.5642 124.473 46.818 119.793 58.4285C115.113 70.039 101.858 75.6795 90.248 70.9996C78.6412 66.3211 73.0062 53.0688 77.6869 41.4565C82.3668 29.846 95.6187 24.2066 107.224 28.8843Z" fill="#FFE814"/>
<path d="M165.663 135.393L153.623 130.54L158.94 117.351C159.557 115.819 158.817 114.079 157.285 113.461L63.7041 75.7412C62.1719 75.1237 60.4319 75.8639 59.8143 77.3961L51.4609 98.1201L26.6953 72.8812C25.9927 72.1618 24.9667 71.8449 23.9796 72.0444C22.9896 72.2405 22.1667 72.9228 21.7897 73.858L5.20515 115.003C4.82819 115.938 4.94786 117 5.52329 117.828C5.86022 118.314 6.32773 118.678 6.86001 118.893C7.23705 119.045 7.64537 119.119 8.06206 119.109L43.4048 118.107L35.0544 138.823C34.4368 140.355 35.1771 142.096 36.7092 142.713L130.29 180.433C131.822 181.051 133.562 180.311 134.18 178.778L139.502 165.573L151.542 170.426C153.074 171.043 154.814 170.303 155.431 168.771L167.317 139.284C167.934 137.752 167.193 136.01 165.663 135.393ZM45.8446 112.054L12.4573 113.002L25.6276 80.3272L49.0226 104.169L45.8446 112.054ZM146.961 131.077L135.076 160.564L129.753 173.769L41.7172 138.284L64.2415 82.4033L152.277 117.889L146.961 131.077ZM151.005 163.762L141.738 160.026L151.388 136.085L160.655 139.82L151.005 163.762Z" fill="#FFE814"/>
<path d="M94.2097 61.1704C100.407 63.6683 107.478 60.6616 109.973 54.4701C112.47 48.2767 109.46 41.2069 103.263 38.709C97.0756 36.2149 90.0102 39.2238 87.5138 45.4171C85.0182 51.6086 88.0219 58.6762 94.2097 61.1704ZM101.029 44.2518C104.167 45.5168 105.694 49.0969 104.429 52.2333C103.166 55.3679 99.5855 56.8896 96.4454 55.6239C93.3145 54.3619 91.7958 50.7848 93.0592 47.6502C94.3227 44.5156 97.9002 42.9906 101.029 44.2518Z" fill="#FFE814"/>
<path d="M143.45 81.0181C149.649 83.5167 156.723 80.5115 159.219 74.32C161.716 68.1266 158.703 61.0554 152.504 58.5567C146.312 56.0611 139.243 59.0685 136.747 65.2619C134.251 71.4534 137.258 78.5224 143.45 81.0181ZM150.269 64.0995C153.411 65.366 154.939 68.9468 153.675 72.0832C152.412 75.2178 148.828 76.738 145.686 75.4716C142.551 74.2081 141.029 70.6295 142.292 67.4949C143.556 64.3604 147.135 62.8361 150.269 64.0995Z" fill="#FFE814"/>
</svg>
