<svg width="136" height="128" viewBox="0 0 136 128" fill="none" xmlns="http://www.w3.org/2000/svg">
<path d="M59.8671 52.0642C67.4301 55.1127 75.7978 53.0578 81.16 47.5424C81.1998 55.2352 85.806 62.5196 93.3728 65.5696C103.346 69.5895 114.73 64.742 118.752 54.7639C122.774 44.7871 117.932 33.3992 107.96 29.3798C100.393 26.3298 92.0231 28.3836 86.6601 33.8972C86.6223 26.2067 82.0187 18.9234 74.4544 15.8744C64.4801 11.854 53.0931 16.7005 49.0717 26.6773C45.0498 36.6553 49.8928 48.0438 59.8671 52.0642ZM106.439 33.1525C114.332 36.3338 118.164 45.3475 114.98 53.245C111.797 61.1424 102.785 64.9806 94.8925 61.7994C86.99 58.6141 83.1521 49.5978 86.3359 41.6991C89.5179 33.8011 98.5369 29.9672 106.439 33.1525ZM72.9337 19.6471C80.8311 22.8304 84.6665 31.8456 81.4832 39.7431C78.3 47.6406 69.2842 51.4772 61.3867 48.294C53.4918 45.1117 49.6589 36.0974 52.8427 28.1987C56.026 20.3013 65.04 16.4653 72.9337 19.6471Z" fill="#FFE814"/>
<path d="M112.684 92.0944L104.495 88.7936L108.111 79.8225C108.531 78.7803 108.027 77.5967 106.985 77.1767L43.3315 51.5193C42.2893 51.0992 41.1057 51.6028 40.6856 52.6449L35.0037 66.7414L18.1581 49.5739C17.6801 49.0846 16.9822 48.869 16.3108 49.0047C15.6374 49.1381 15.0777 49.6022 14.8213 50.2383L3.54041 78.2252C3.28401 78.8613 3.3654 79.5839 3.75682 80.1465C3.98599 80.4771 4.30399 80.7251 4.66605 80.871C4.92251 80.9744 5.20026 81.025 5.48369 81.0179L29.5239 80.3363L23.8439 94.4278C23.4238 95.47 23.9274 96.6536 24.9695 97.0737L88.6232 122.731C89.6654 123.151 90.8489 122.648 91.269 121.605L94.8896 112.623L103.079 115.924C104.121 116.344 105.304 115.84 105.725 114.798L113.809 94.7415C114.229 93.6993 113.725 92.514 112.684 92.0944ZM31.1834 76.2192L8.47332 76.864L17.4318 54.6387L33.3451 70.8561L31.1834 76.2192ZM99.9631 89.1591L91.8787 109.216L88.2581 118.198L28.376 94.061L43.697 56.0509L103.579 80.188L99.9631 89.1591ZM102.714 111.391L96.4103 108.85L102.975 92.565L109.278 95.1058L102.714 111.391Z" fill="#FFE814"/>
<path d="M64.0815 41.6083C68.2967 43.3074 73.1063 41.2622 74.8039 37.0507C76.5019 32.838 74.455 28.0291 70.2398 26.3301C66.0308 24.6335 61.225 26.6802 59.5269 30.8929C57.8294 35.1044 59.8725 39.9117 64.0815 41.6083ZM68.7201 30.1003C70.8547 30.9607 71.8928 33.3959 71.0329 35.5293C70.1735 37.6614 67.7381 38.6965 65.6022 37.8356C63.4726 36.9772 62.4395 34.544 63.2989 32.4119C64.1583 30.2797 66.5917 29.2424 68.7201 30.1003Z" fill="#FFE814"/>
<path d="M97.5748 55.1086C101.791 56.8082 106.603 54.764 108.301 50.5526C109.999 46.3398 107.95 41.5299 103.733 39.8304C99.5216 38.1328 94.7133 40.1785 93.0152 44.3912C91.3176 48.6027 93.3633 53.4111 97.5748 55.1086ZM102.213 43.6006C104.351 44.462 105.39 46.8977 104.53 49.0311C103.671 51.1633 101.233 52.1973 99.0955 51.3359C96.9633 50.4765 95.9278 48.0423 96.7872 45.9101C97.6466 43.778 100.081 42.7412 102.213 43.6006Z" fill="#FFE814"/>
</svg>
