<svg width="192" height="37" viewBox="0 0 192 37" fill="none" xmlns="http://www.w3.org/2000/svg">
<path d="M0 0H18.5654L9.28268 18.5654L0 0Z" fill="white"/>
<path d="M1.04602 37L19.2192 0L28.3711 18.4346L1.04602 37Z" fill="white"/>
<path d="M20.2649 36.9999L28.6324 19.219L2.22253 36.9999H20.2649Z" fill="white"/>
<path d="M42.2297 12.2898C44.102 10.5348 46.5941 9.59442 49.159 9.67494C51.724 9.59442 54.2161 10.5348 56.0884 12.2898C56.9991 13.1657 57.7145 14.2241 58.1876 15.3957C58.6608 16.5673 58.881 17.8257 58.8339 19.0884C58.8697 20.3496 58.6442 21.6047 58.1717 22.7746C57.6993 23.9446 56.9899 25.0042 56.0884 25.8869C54.2161 27.6419 51.724 28.5823 49.159 28.5018C46.5941 28.5823 44.102 27.6419 42.2297 25.8869C41.319 25.0111 40.6036 23.9527 40.1305 22.781C39.6573 21.6094 39.4371 20.351 39.4841 19.0884C39.5347 16.5622 40.5118 14.1426 42.2297 12.2898ZM44.8446 23.5336C46.016 24.6254 47.5577 25.2325 49.159 25.2325C50.7604 25.2325 52.3021 24.6254 53.4735 23.5336C54.0495 22.9509 54.498 22.2549 54.7906 21.4896C55.0832 20.7244 55.2135 19.9067 55.1732 19.0884C55.2135 18.2701 55.0832 17.4523 54.7906 16.6871C54.498 15.9218 54.0495 15.2258 53.4735 14.6431C52.3021 13.5513 50.7604 12.9442 49.159 12.9442C47.5577 12.9442 46.016 13.5513 44.8446 14.6431C44.2686 15.2258 43.8201 15.9218 43.5275 16.6871C43.2349 17.4523 43.1046 18.2701 43.1449 19.0884C43.1001 20.7368 43.7114 22.3356 44.8446 23.5336Z" fill="white"/>
<path d="M61.9717 10.0671H67.2014C68.8341 9.9397 70.4583 10.4037 71.7773 11.3745C72.3615 11.874 72.8284 12.4962 73.1448 13.1967C73.4612 13.8973 73.6192 14.6589 73.6077 15.4275C73.6634 16.248 73.4989 17.0684 73.1311 17.804C72.7633 18.5396 72.2057 19.1635 71.5158 19.6112C70.9349 20.0269 70.2621 20.2961 69.5547 20.3957L75.1766 27.9787H70.8621L66.0247 20.7879H65.6325V27.9787H62.1024V10.0671H61.9717ZM65.5017 12.9434V18.3038H66.5476C66.8581 18.3149 67.168 18.2707 67.4628 18.1731C67.8216 18.133 68.1734 18.0451 68.5088 17.9116C68.9341 17.772 69.3016 17.4963 69.5547 17.1271C69.8378 16.6545 69.9743 16.1085 69.9469 15.5582C69.9743 15.008 69.8378 14.462 69.5547 13.9893C69.3016 13.6202 68.9341 13.3445 68.5088 13.2049C68.1734 13.0714 67.8216 12.9834 67.4628 12.9434H65.5017Z" fill="white"/>
<path d="M86.6821 21.4417V18.4347H94.9189V18.9576C95.0352 21.0954 94.4373 23.2111 93.2192 24.9718C92.4263 26.1298 91.3476 27.0634 90.0878 27.6818C88.8279 28.3003 87.4296 28.5828 86.0284 28.5018C84.7781 28.5416 83.5324 28.3308 82.3648 27.8817C81.1972 27.4326 80.1312 26.7544 79.2298 25.8869C78.3624 24.9855 77.6842 23.9196 77.2351 22.752C76.786 21.5844 76.5752 20.3387 76.615 19.0884C76.5679 17.8257 76.7882 16.5673 77.2613 15.3957C77.7345 14.2241 78.4499 13.1657 79.3606 12.2898C81.2329 10.5348 83.725 9.59442 86.2899 9.67494C87.4023 9.64617 88.5105 9.82348 89.5585 10.1979C90.4217 10.4738 91.2216 10.9182 91.9118 11.5053C92.3808 11.9066 92.818 12.3437 93.2192 12.8127L94.0037 13.9894L90.9966 15.6891C90.8986 15.4197 90.7149 15.1901 90.4736 15.0354C90.3429 14.7739 89.9507 14.5124 89.6892 14.1202C89.2885 13.7349 88.7919 13.4641 88.251 13.3357C87.625 13.1032 86.9549 13.0139 86.2899 13.0742C85.4841 13.0698 84.6858 13.2298 83.9439 13.5445C83.202 13.8592 82.5322 14.322 81.9754 14.9046C80.8845 16.1288 80.2799 17.7102 80.2758 19.3499C80.2922 20.903 80.7951 22.412 81.7139 23.6643C82.2545 24.3027 82.9403 24.8021 83.7138 25.1206C84.4872 25.4391 85.3258 25.5674 86.1592 25.4947C87.36 25.5515 88.5485 25.2315 89.5585 24.5795C90.036 24.2548 90.436 23.8286 90.7298 23.3314C91.0237 22.8342 91.204 22.2782 91.2581 21.7032H86.6821V21.4417Z" fill="white"/>
<path d="M108.777 11.7669L106.947 14.1202C106.636 13.6401 106.21 13.2451 105.708 12.9712C105.205 12.6972 104.643 12.5529 104.071 12.5513C103.737 12.5245 103.401 12.5689 103.085 12.6816C102.77 12.7943 102.482 12.9727 102.24 13.205C101.844 13.5814 101.61 14.0971 101.587 14.6432C101.565 14.8678 101.602 15.0942 101.693 15.3004C101.785 15.5066 101.928 15.6855 102.11 15.8199C102.782 16.2981 103.535 16.6523 104.332 16.8658C105.662 17.2256 106.907 17.848 107.993 18.6962C108.516 19.1746 108.928 19.7621 109.199 20.4174C109.47 21.0726 109.594 21.7794 109.562 22.4877C109.589 23.285 109.453 24.0794 109.16 24.8216C108.868 25.5638 108.426 26.238 107.862 26.8022C106.594 27.891 104.956 28.4525 103.286 28.3711C102.053 28.3952 100.836 28.0935 99.7573 27.4967C98.6784 26.8998 97.776 26.0289 97.1414 24.9718L99.4947 22.7492C99.8467 23.5282 100.443 24.171 101.194 24.5796C101.832 24.9555 102.548 25.1792 103.286 25.2333C103.994 25.2371 104.683 25.0073 105.247 24.5796C105.503 24.3493 105.705 24.0664 105.84 23.7504C105.976 23.4344 106.041 23.0928 106.032 22.7492C106.034 22.4571 105.977 22.1677 105.865 21.8981C105.753 21.6285 105.587 21.3844 105.378 21.1803C104.546 20.5884 103.617 20.146 102.633 19.8729C101.52 19.5967 100.489 19.0588 99.6254 18.304C99.1499 17.8784 98.7744 17.353 98.5258 16.7653C98.2772 16.1776 98.1616 15.5423 98.1873 14.9047C98.1857 13.5073 98.6975 12.158 99.6254 11.1131C100.201 10.5733 100.88 10.1559 101.622 9.88623C102.363 9.61655 103.152 9.50021 103.94 9.54424C105.768 9.67615 107.487 10.4657 108.777 11.7669Z" fill="white"/>
<path d="M122.244 13.0742H118.191V28.1095H114.661V13.0742H110.608V10.0671H122.244V13.0742Z" fill="white"/>
<path d="M124.466 10.0671H129.696C131.329 9.9397 132.953 10.4037 134.272 11.3745C134.856 11.874 135.323 12.4962 135.64 13.1967C135.956 13.8973 136.114 14.6589 136.102 15.4275C136.158 16.248 135.994 17.0684 135.626 17.804C135.258 18.5396 134.7 19.1635 134.011 19.6112C133.43 20.0269 132.757 20.2961 132.049 20.3957L137.671 27.9787H133.357L128.519 20.7879H128.127V27.9787H124.597V10.0671H124.466ZM127.996 12.9434V18.3038H129.042C129.353 18.3149 129.663 18.2707 129.958 18.1731C130.316 18.133 130.668 18.0451 131.004 17.9116C131.429 17.772 131.796 17.4963 132.049 17.1271C132.333 16.6545 132.469 16.1085 132.442 15.5582C132.469 15.008 132.333 14.462 132.049 13.9893C131.796 13.6202 131.429 13.3445 131.004 13.2049C130.668 13.0714 130.316 12.9834 129.958 12.9434H127.996Z" fill="white"/>
<path d="M149.961 10.0671V13.0742H143.424V17.1272H149.569V20.1343H143.424V25.1025H149.961V28.1095H140.025V10.0671H149.961Z" fill="white"/>
<path d="M165.519 28.1097L163.951 24.3182H156.629L155.06 28.1097H151.269L159.113 9.67505H161.728L169.311 28.1097H165.519ZM157.806 21.4418H162.905L160.42 14.9047L157.806 21.4418Z" fill="white"/>
<path d="M170.488 28.1095L173.887 9.80566H176.371L181.209 21.5724L186.307 9.80566H188.792L191.799 28.1095H188.269L186.7 16.9965L181.731 28.371H180.816L176.11 16.9965L174.279 28.1095H170.488Z" fill="white"/>
</svg>
