<svg width="55" height="58" viewBox="0 0 55 58" fill="none" xmlns="http://www.w3.org/2000/svg">
<path d="M48.91 36.2579V22.5488L55 18.4606L27.4997 0L0 18.4606L5.08544 21.8749V36.2753L27.6667 50.8525L39.4916 42.7283V48.1786L34.6145 58H46.2182L41.3411 48.1786V41.4581L48.91 36.2579ZM37.6071 56.1384L40.4167 50.4796L43.2268 56.1384H37.6071ZM47.0612 35.2743L41.3411 39.2043V27.6298L47.0612 23.7899V35.2743ZM27.4997 2.23769L51.6666 18.4613L40.416 26.0133L28.0124 17.6862L26.987 19.2351L38.7503 27.1315L27.5003 34.6836L3.33277 18.4606L27.4997 2.23769ZM27.6353 48.6204L6.93485 35.257V23.116L27.4997 36.9213L39.4916 28.8709V40.4739L27.6353 48.6204Z" fill="#FFE814"/>
</svg>
