<svg width="53" height="46" viewBox="0 0 53 46" fill="none" xmlns="http://www.w3.org/2000/svg">
<path d="M20.7519 19.0692C24.737 19.0692 28.1545 16.609 29.5774 13.1293C31.0009 16.609 34.4197 19.0692 38.4068 19.0692C43.6618 19.0692 47.9365 14.792 47.9365 9.53429C47.9365 4.27728 43.6612 0 38.4068 0C34.4197 0 31.0009 2.46025 29.5774 5.93931C28.1551 2.46025 24.7377 0 20.7519 0C15.4962 0 11.2202 4.27728 11.2202 9.53429C11.2202 14.792 15.4962 19.0692 20.7519 19.0692ZM38.4068 1.98794C42.5655 1.98794 45.9492 5.3736 45.9492 9.53495C45.9492 13.6963 42.5655 17.0826 38.4068 17.0826C34.2428 17.0826 30.8558 13.697 30.8558 9.53495C30.8552 5.3736 34.2428 1.98794 38.4068 1.98794ZM20.7519 1.98794C24.9132 1.98794 28.2989 5.3736 28.2989 9.53495C28.2989 13.6963 24.9132 17.0826 20.7519 17.0826C16.5918 17.0826 13.2075 13.697 13.2075 9.53495C13.2075 5.3736 16.5925 1.98794 20.7519 1.98794Z" fill="#FFE814"/>
<path d="M52.0064 27.5641H47.6913V22.837C47.6913 22.2879 47.2468 21.8434 46.6977 21.8434H13.1571C12.6079 21.8434 12.1635 22.2879 12.1635 22.837V30.2648L1.39109 25.5609C1.08505 25.4264 0.72933 25.4563 0.449787 25.6404C0.168918 25.8239 0 26.1366 0 26.4718V41.2187C0 41.5539 0.168918 41.8665 0.449124 42.05C0.613406 42.158 0.80286 42.2123 0.993638 42.2123C1.12877 42.2123 1.26391 42.1845 1.39109 42.1295L12.1635 37.4283V44.8534C12.1635 45.4025 12.6079 45.847 13.1571 45.847H46.6977C47.2468 45.847 47.6913 45.4025 47.6913 44.8534V40.1204H52.0064C52.5555 40.1204 53 39.6759 53 39.1267V28.5584C53 28.0092 52.5549 27.5641 52.0064 27.5641ZM12.1635 35.2588L1.98728 39.7004V27.9894L12.1635 32.4329V35.2588ZM45.704 28.5577V39.1261V43.8591H14.1507V23.8307H45.704V28.5577ZM51.0127 38.1324H47.6913V29.5514H51.0127V38.1324Z" fill="#FFE814"/>
<path d="M20.7518 13.5597C22.9729 13.5597 24.7793 11.754 24.7793 9.53484C24.7793 7.31505 22.9729 5.50928 20.7518 5.50928C18.534 5.50928 16.7296 7.31505 16.7296 9.53484C16.7296 11.754 18.534 13.5597 20.7518 13.5597ZM20.7518 7.49589C21.8766 7.49589 22.7921 8.41004 22.7921 9.53417C22.7921 10.6576 21.8773 11.5718 20.7518 11.5718C19.6297 11.5718 18.7168 10.6576 18.7168 9.53417C18.7168 8.4107 19.6303 7.49589 20.7518 7.49589Z" fill="#FFE814"/>
<path d="M38.4002 13.5597C40.622 13.5597 42.4297 11.754 42.4297 9.53484C42.4297 7.31505 40.622 5.50928 38.4002 5.50928C36.1811 5.50928 34.3753 7.31505 34.3753 9.53484C34.3753 11.754 36.1811 13.5597 38.4002 13.5597ZM38.4002 7.49589C39.5263 7.49589 40.4425 8.41004 40.4425 9.53417C40.4425 10.6576 39.5263 11.5718 38.4002 11.5718C37.2767 11.5718 36.3626 10.6576 36.3626 9.53417C36.3626 8.4107 37.2767 7.49589 38.4002 7.49589Z" fill="#FFE814"/>
</svg>
