<svg width="56" height="56" viewBox="0 0 56 56" fill="none" xmlns="http://www.w3.org/2000/svg">
<path d="M36.95 19.6547L18.4431 34.3861C18.0611 34.6903 17.998 35.2468 18.3016 35.6289C18.4761 35.8482 18.7338 35.9626 18.9944 35.9626C19.1872 35.9626 19.3817 35.9001 19.5444 35.7704L38.0513 21.039C38.4334 20.7348 38.4964 20.1783 38.1928 19.7962C37.8892 19.4142 37.3326 19.3505 36.95 19.6547Z" fill="#FFE814"/>
<path d="M20.6964 25.2391C21.4923 25.8204 22.4309 26.1252 23.3983 26.1252C23.6353 26.1252 23.8747 26.1069 24.1135 26.0698C26.6168 25.6801 28.3371 23.3266 27.9486 20.8233C27.5589 18.3194 25.2042 16.5991 22.7021 16.9888C20.1982 17.3779 18.4779 19.7314 18.8676 22.2347C19.0556 23.4474 19.7047 24.5151 20.6964 25.2391ZM22.9733 18.7362C23.1195 18.7133 23.2651 18.7021 23.409 18.7021C24.7773 18.7021 25.9836 19.7014 26.2005 21.0951C26.4399 22.635 25.3816 24.083 23.8417 24.3223C23.0941 24.4385 22.3489 24.2569 21.7399 23.8112C21.1303 23.3661 20.7306 22.7093 20.615 21.9635C20.3757 20.4236 21.4333 18.9756 22.9733 18.7362Z" fill="#FFE814"/>
<path d="M33.1303 29.265C30.5957 29.265 28.5334 31.3267 28.5334 33.8606C28.5334 36.3946 30.5957 38.4557 33.1303 38.4557C35.6648 38.4557 37.7265 36.394 37.7265 33.8606C37.7271 31.3267 35.6648 29.265 33.1303 29.265ZM33.1303 36.687C31.5709 36.687 30.3021 35.4188 30.3021 33.8606C30.3021 32.3018 31.5709 31.0337 33.1303 31.0337C34.6896 31.0337 35.9578 32.3018 35.9578 33.8606C35.9584 35.4194 34.6896 36.687 33.1303 36.687Z" fill="#FFE814"/>
<path d="M50.8537 22.8396C49.101 21.9664 47.2892 21.0632 46.7952 19.8959C46.2911 18.7044 46.9844 16.8084 47.6548 14.9748C48.5651 12.4845 49.5072 9.90992 47.798 8.20197C46.1166 6.51995 43.6228 7.09831 41.2103 7.65839C39.4829 8.05929 37.6965 8.47375 36.482 7.96025C35.2993 7.45912 34.3325 5.93393 33.3974 4.45885C32.0727 2.36885 30.5717 0 28.0012 0C25.426 0 23.9538 2.42133 22.655 4.55789C21.7336 6.07365 20.7802 7.64129 19.5982 8.14124C18.3854 8.65416 16.5784 8.19902 14.8304 7.7598C12.3996 7.14842 9.88634 6.517 8.20256 8.20197C6.50226 9.90108 7.33944 12.4904 8.1495 14.9949C8.742 16.8261 9.35397 18.7197 8.84636 19.9201C8.3523 21.0903 6.62018 21.9853 4.94523 22.8514C2.62708 24.0499 0 25.4083 0 28C0 30.5835 2.52509 31.996 4.75304 33.2424C6.34898 34.135 7.99916 35.0582 8.49675 36.2338C9.00672 37.4395 8.47258 39.2924 7.95671 41.0841C7.24511 43.5532 6.50934 46.1072 8.20256 47.7992C9.94766 49.5437 12.7451 48.0916 15.4506 46.6855C17.4168 45.6644 19.6459 44.5053 20.805 44.9964C21.9364 45.4752 22.6945 47.8128 23.3637 49.8751C24.34 52.8859 25.3505 56 28.0018 56C30.656 56 31.6329 52.883 32.5773 49.8686C33.2259 47.7998 33.961 45.4545 35.0912 44.977C36.2503 44.4871 38.5048 45.6491 40.4934 46.6749C43.2278 48.0857 46.0547 49.5437 47.7986 47.7998C49.5089 46.0901 48.5721 43.5514 47.6666 41.0959C47.0009 39.2907 46.3123 37.4241 46.8152 36.2338C47.3099 35.0647 49.1157 34.1356 50.862 33.2371C53.3882 31.9371 56.0006 30.5935 56.0006 28C55.9988 25.4036 53.3829 24.1001 50.8537 22.8396ZM50.0513 31.6647C48.025 32.7071 45.9297 33.7854 45.1851 35.5458C44.4098 37.3805 45.2217 39.5807 46.0064 41.7085C46.7522 43.7307 47.4567 45.6402 46.547 46.5493C45.7169 47.38 43.3716 46.1708 41.3034 45.1037C38.8556 43.8409 36.3246 42.5356 34.4014 43.3486C32.5172 44.1451 31.6889 46.7864 30.8888 49.3409C30.1354 51.7457 29.356 54.2325 28.0012 54.2325C26.6352 54.2325 25.8269 51.7404 25.0451 49.3303C24.2209 46.7893 23.369 44.1616 21.4936 43.3687C21.0774 43.1924 20.634 43.1152 20.17 43.1152C18.4874 43.1152 16.536 44.1292 14.6347 45.1167C12.5948 46.1773 10.2813 47.3789 9.45243 46.5493C8.49734 45.5948 9.05978 43.6422 9.65582 41.5746C10.2572 39.487 10.8792 37.3286 10.1251 35.5452C9.39111 33.8113 7.47209 32.7377 5.61615 31.6995C3.63759 30.5929 1.76868 29.547 1.76868 28.0012C1.76868 26.486 3.70598 25.4838 5.75765 24.4237C7.71145 23.4132 9.73247 22.3685 10.4753 20.6099C11.2394 18.8034 10.5242 16.5914 9.8321 14.4519C9.15646 12.3625 8.51797 10.3881 9.45301 9.45419C10.4281 8.47788 12.3572 8.96309 14.3994 9.4766C16.4299 9.98775 18.5311 10.516 20.2874 9.77197C21.9947 9.05034 23.099 7.2345 24.1667 5.4782C25.3258 3.57156 26.4206 1.77045 28.0012 1.77045C29.5983 1.77045 30.7179 3.53736 31.9035 5.40745C32.9841 7.11187 34.1008 8.87465 35.7934 9.59097C37.5379 10.3285 39.6084 9.84802 41.6106 9.38286C43.6416 8.9118 45.5601 8.46609 46.5482 9.45419C47.459 10.3645 46.7474 12.3094 45.9946 14.3688C45.2069 16.5242 44.3916 18.7527 45.1674 20.5863C45.9162 22.3555 48.0256 23.4073 50.0661 24.4237C52.2079 25.4914 54.2313 26.4996 54.2313 28.0012C54.2301 29.514 52.2003 30.5587 50.0513 31.6647Z" fill="#FFE814"/>
</svg>
