<svg width="33" height="33" viewBox="0 0 33 33" fill="none" xmlns="http://www.w3.org/2000/svg">
<circle r="16" transform="matrix(-1 0 0 1 16.5 16.5)" fill="#2D2979" stroke="#2D2979"/>
<path d="M13.4954 24.9659C13.3718 24.8635 13.2173 24.7781 13.1246 24.6586C12.9083 24.3514 12.9856 23.9759 13.2637 23.6857C14.9476 21.9789 16.6315 20.2892 18.3154 18.5994C18.9488 17.9679 19.5823 17.3193 20.2157 16.6878C20.2775 16.6195 20.3392 16.5512 20.4165 16.4659C20.0148 16.0562 19.6286 15.6637 19.2424 15.2882C17.682 13.7179 16.1217 12.1476 14.5614 10.5773C14.1442 10.1677 13.7426 9.7239 13.31 9.33133C12.8929 8.95582 12.8774 8.25602 13.4954 8C13.6035 8 13.6962 8 13.8044 8C14.0516 8.22189 14.2987 8.40964 14.5305 8.63153C16.925 11.0382 19.3042 13.4448 21.6987 15.8514C22.1004 16.244 22.1004 16.7219 21.6987 17.1315C19.1806 19.6747 16.647 22.2179 14.1288 24.761C14.0361 24.8635 13.9125 24.9147 13.8044 25C13.7117 24.9659 13.6035 24.9659 13.4954 24.9659Z" fill="white"/>
</svg>
